<?xml version="1.0" encoding="utf-8"?>
<svg xmlns="http://www.w3.org/2000/svg" viewBox="-826.0816 125.3876 725.8614 551.5131" width="725.8614px" height="551.5131px"><g id="New_Layer" transform="matrix(1, 0, 0, 1, -918.7583618164062, -24.089393615722656)"><path class="cls-1" d="M 657.178 345.847 C 657.178 346.557 653.288 348.687 648.428 350.457 C 643.768 352.227 631.338 358.797 621.038 365.007 L 602.188 376.357 L 589.948 366.067 C 578.098 356.137 570.908 352.227 502.908 318.177 C 467.548 300.437 458.998 294.577 453.558 283.937 C 449.088 275.427 446.178 261.237 448.698 261.237 C 449.478 261.237 459.778 269.747 471.238 279.857 C 482.898 290.147 493.188 298.487 494.168 298.487 C 495.148 298.487 491.448 293.517 486.008 287.307 C 480.568 281.277 472.788 271.167 468.708 264.777 C 456.858 246.507 449.478 222.737 454.918 219.727 C 455.888 219.197 462.688 225.757 470.268 234.267 C 483.288 248.997 514.758 278.437 505.818 267.437 C 482.508 238.707 470.458 215.467 469.098 195.957 C 468.518 187.617 468.908 183.187 470.268 183.187 C 471.428 183.187 476.488 189.387 481.338 196.837 C 492.028 212.807 503.098 226.107 517.088 239.947 L 526.998 249.707 L 519.038 238.177 C 500.578 211.387 489.888 185.487 488.528 164.027 C 487.948 154.447 488.338 149.477 489.698 149.477 C 490.858 149.477 494.938 155.337 498.828 162.247 C 506.988 176.797 526.998 205.177 540.208 221.317 C 556.528 240.837 576.738 261.767 614.038 297.777 C 646.878 329.527 657.178 341.057 657.178 345.847 Z" style="fill: rgb(255, 255, 255); stroke-width: 1px;" id="object-4"/><g transform="matrix(1, 0, 0, 1, -392.371765, -36.802784)" id="object-3"><path class="cls-1" d="m1206.35,429.66c8.94,7.63,6.61,8.51-24.09,8.51q-28.76,0-41.58,5.85c-6.99,3.19-15.93,8.16-20.01,11.18-7.77,5.5-25.45,26.25-45.85,53.57-14.18,19.16-34.78,39.73-50.71,51.09-23.51,16.5-57.12,29.98-88.4,35.48-17.29,2.84-56.34,4.08-71.69,1.95-2.51-.34-4.22-.55-5.85-.23-21.74-2.89-41.7-6.92-59.69-11.42-12.98,6.88-32.41,16.87-56.56,27.97-9.64,4.43-19.18,8.82-28.72,13.07-.95-.04-6.14,1.97-33.77,12.83-39.83,15.61-92.48,29.8-128.23,34.77-21.37,2.84-62.37,3.02-65.28.35-1.75-1.6-.97-2.31,3.3-3.19,14.77-3.02,66.25-15.96,85.29-21.64,68.2-20.04,156.21-56.23,211.78-87.1,11.79-6.4,33.79-20.04,49.19-30.16,20.61,2.8,45.06,4.42,69.63,3.67-19.25,10.15-28.91,18.61-33.34,28.44-4.08,9.05-2.33,13.13,6.8,15.61,9.71,2.66,35.94-.35,54.98-6.39,46.05-14.55,83.93-52.51,86.46-86.56.97-15.26-4.08-36.36-13.02-53.93l-5.83-11,7.19-5.14c32.45-22.53,61.98-32.11,89.57-28.56,17.1,2.13,44.88,11,52.26,16.67,2.91,2.13,10.1,5.32,15.93,7.1,16.13,4.79,35.36,12.95,40.22,17.21Zm-90.35-8.51c2.14-4.08,1.94-5.14-2.14-7.98-2.53-1.95-5.05-3.37-5.83-3.37-3.69.18-7.97,4.26-7.97,7.63,0,9.05,12.05,11.71,15.93,3.73Z" style="fill: rgb(255, 255, 255);" id="object-0"/><path class="cls-2" d="m995.73,436.4c11.27,20.75,7.58,41.51-10.3,58.36-9.91,9.4-17.1,13.3-48.57,26.61-12.73,5.46-23.2,10.31-31.75,14.85-24.58.75-49.02-.87-69.63-3.67,10.2-6.69,17.53-11.81,17.06-12.24-.39-.35-6.99-2.31-14.77-4.26s-17.1-4.97-20.98-6.74l-6.8-3.19,13.41-1.06c7.38-.71,17.29-1.24,21.96-1.24s8.16-.35,7.77-.89c-.58-.35-11.46-2.84-24.29-5.32-27.2-5.14-45.46-10.64-62.17-18.27-11.66-5.32-25.06-14.37-23.51-15.61.39-.53,11.66.89,24.87,2.84,13.21,1.95,27.2,3.55,30.89,3.37,5.63,0,4.47-.71-7.77-4.08-28.37-7.98-60.62-22-76.16-33.35-7.97-5.68-19.82-18.98-18.26-20.58.58-.35,8.35,1.6,17.29,4.61,8.94,3.02,25.06,7.63,35.56,10.11,10.49,2.66,20.4,5.14,22.15,5.68,1.55.35-9.33-4.79-24.29-11.53-30.31-13.84-57.51-30.69-69.36-42.93-8.94-9.05-16.32-21.29-13.02-21.29,1.17,0,7.97,3.19,15.15,6.92,13.21,7.1,62.37,27.32,63.53,26.25.39-.35-9.91-6.92-22.93-14.72-41.19-24.3-75.19-59.25-73.05-74.68.58-4.26,1.36-3.9,18.07,8.34,27.2,20.04,75.39,47.89,54.4,31.57-34.39-26.96-56.93-50.73-66.25-69.89-5.05-10.47-8.74-30.87-5.44-30.87.97,0,4.86,3.9,8.55,8.34,13.99,16.85,61.4,57.3,67.23,57.3.78,0-2.33-3.73-7.19-8.51-19.23-18.27-35.75-39.38-47.21-60.49-7.77-14.01-13.79-35.48-11.85-42.57,1.36-4.97,1.75-4.79,13.02,11.53,16.32,23.06,48.18,53.93,81.21,78.23,36.92,27.14,92.68,58.89,169.03,96.32,48.96,23.95,61.98,33.88,74.41,56.76Z" style="fill: rgb(220, 38, 38);" id="object-1"/><path class="cls-3" d="m798.47,585.64c17.99,4.51,37.95,8.53,59.69,11.42-3.42.71-6.43,3.8-15.52,13.18-13.6,14.19-50.32,45.41-71.5,61.2-26.23,19.51-68.97,42.75-75.97,41.33-2.14-.35-.39-2.48,6.02-7.27,13.99-10.29,43.72-35.3,42.74-36.01-.39-.35-13.02,6.56-27.78,15.61-33.42,20.22-51.88,29.98-74.61,38.85-43.13,17.03-84.32,18.98-51.1,2.31,52.65-26.08,116.38-65.28,77.13-47.18-17.29,7.98-63.73,24.48-83.35,29.62-9.52,2.66-23.51,5.14-31.09,5.68-13.99.89-25.26-1.42-23.9-4.97.39-1.06,10.69-5.32,22.93-9.58,30.5-10.29,54.4-20.04,85.49-34.95,33.81-16.14,75.77-37.25,75.77-37.96,0-.12-.02-.23-.23-.23,9.54-4.26,19.08-8.64,28.72-13.07,24.15-11.1,43.58-21.09,56.56-27.97Z" style="fill: rgb(220, 38, 38);" id="object-2"/></g></g></svg>