<?xml version="1.0" encoding="utf-8"?>
<svg xmlns="http://www.w3.org/2000/svg" viewBox="-967.7179 219.6787 725.8613 551.5134" width="725.8613px" height="551.5134px">
  <g id="svg-1" transform="matrix(1, 0, 0, 1, 899.3375244140625, -54.98025131225586)">
    <path class="cls-1" d="M -1302.6 471.029 C -1302.6 471.739 -1306.4 473.869 -1311.3 475.639 C -1316 477.409 -1328.4 483.979 -1338.7 490.189 L -1357.5 501.539 L -1369.8 491.249 C -1381.6 481.319 -1388.8 477.409 -1456.8 443.359 C -1492.2 425.619 -1500.7 419.759 -1506.2 409.119 C -1510.6 400.609 -1513.6 386.419 -1511 386.419 C -1510.3 386.419 -1500 394.929 -1488.5 405.039 C -1476.8 415.329 -1466.5 423.669 -1465.6 423.669 C -1464.6 423.669 -1468.3 418.699 -1473.7 412.489 C -1479.2 406.459 -1486.9 396.349 -1491 389.959 C -1502.9 371.689 -1510.3 347.919 -1504.8 344.91 C -1503.8 344.38 -1497 350.939 -1489.5 359.45 C -1476.4 374.18 -1445 403.619 -1453.9 392.619 C -1477.2 363.889 -1489.3 340.649 -1490.6 321.139 C -1491.2 312.799 -1490.8 308.369 -1489.5 308.369 C -1488.3 308.369 -1483.2 314.569 -1478.4 322.019 C -1467.7 337.989 -1456.6 351.289 -1442.6 365.129 L -1432.7 374.889 L -1440.7 363.359 C -1459.2 336.569 -1469.8 310.669 -1471.2 289.209 C -1471.8 279.629 -1471.4 274.659 -1470 274.659 C -1468.9 274.659 -1464.8 280.519 -1460.9 287.429 C -1452.7 301.979 -1432.7 330.359 -1419.5 346.499 C -1403.2 366.019 -1383 386.95 -1345.7 422.959 C -1312.9 454.709 -1302.6 466.239 -1302.6 471.029 Z" style="fill: rgb(255, 255, 255); stroke-width: 1px;"/>
    <g transform="matrix(1, 0, 0, 1, -2352.104004, 88.379501)">
      <path class="cls-1" d="m1206.35,429.66c8.94,7.63,6.61,8.51-24.09,8.51q-28.76,0-41.58,5.85c-6.99,3.19-15.93,8.16-20.01,11.18-7.77,5.5-25.45,26.25-45.85,53.57-14.18,19.16-34.78,39.73-50.71,51.09-23.51,16.5-57.12,29.98-88.4,35.48-17.29,2.84-56.34,4.08-71.69,1.95-2.51-.34-4.22-.55-5.85-.23-21.74-2.89-41.7-6.92-59.69-11.42-12.98,6.88-32.41,16.87-56.56,27.97-9.64,4.43-19.18,8.82-28.72,13.07-.95-.04-6.14,1.97-33.77,12.83-39.83,15.61-92.48,29.8-128.23,34.77-21.37,2.84-62.37,3.02-65.28.35-1.75-1.6-.97-2.31,3.3-3.19,14.77-3.02,66.25-15.96,85.29-21.64,68.2-20.04,156.21-56.23,211.78-87.1,11.79-6.4,33.79-20.04,49.19-30.16,20.61,2.8,45.06,4.42,69.63,3.67-19.25,10.15-28.91,18.61-33.34,28.44-4.08,9.05-2.33,13.13,6.8,15.61,9.71,2.66,35.94-.35,54.98-6.39,46.05-14.55,83.93-52.51,86.46-86.56.97-15.26-4.08-36.36-13.02-53.93l-5.83-11,7.19-5.14c32.45-22.53,61.98-32.11,89.57-28.56,17.1,2.13,44.88,11,52.26,16.67,2.91,2.13,10.1,5.32,15.93,7.1,16.13,4.79,35.36,12.95,40.22,17.21Zm-90.35-8.51c2.14-4.08,1.94-5.14-2.14-7.98-2.53-1.95-5.05-3.37-5.83-3.37-3.69.18-7.97,4.26-7.97,7.63,0,9.05,12.05,11.71,15.93,3.73Z" style="fill: rgb(255, 255, 255);"/>
      <path class="cls-2" d="m995.73,436.4c11.27,20.75,7.58,41.51-10.3,58.36-9.91,9.4-17.1,13.3-48.57,26.61-12.73,5.46-23.2,10.31-31.75,14.85-24.58.75-49.02-.87-69.63-3.67,10.2-6.69,17.53-11.81,17.06-12.24-.39-.35-6.99-2.31-14.77-4.26s-17.1-4.97-20.98-6.74l-6.8-3.19,13.41-1.06c7.38-.71,17.29-1.24,21.96-1.24s8.16-.35,7.77-.89c-.58-.35-11.46-2.84-24.29-5.32-27.2-5.14-45.46-10.64-62.17-18.27-11.66-5.32-25.06-14.37-23.51-15.61.39-.53,11.66.89,24.87,2.84,13.21,1.95,27.2,3.55,30.89,3.37,5.63,0,4.47-.71-7.77-4.08-28.37-7.98-60.62-22-76.16-33.35-7.97-5.68-19.82-18.98-18.26-20.58.58-.35,8.35,1.6,17.29,4.61,8.94,3.02,25.06,7.63,35.56,10.11,10.49,2.66,20.4,5.14,22.15,5.68,1.55.35-9.33-4.79-24.29-11.53-30.31-13.84-57.51-30.69-69.36-42.93-8.94-9.05-16.32-21.29-13.02-21.29,1.17,0,7.97,3.19,15.15,6.92,13.21,7.1,62.37,27.32,63.53,26.25.39-.35-9.91-6.92-22.93-14.72-41.19-24.3-75.19-59.25-73.05-74.68.58-4.26,1.36-3.9,18.07,8.34,27.2,20.04,75.39,47.89,54.4,31.57-34.39-26.96-56.93-50.73-66.25-69.89-5.05-10.47-8.74-30.87-5.44-30.87.97,0,4.86,3.9,8.55,8.34,13.99,16.85,61.4,57.3,67.23,57.3.78,0-2.33-3.73-7.19-8.51-19.23-18.27-35.75-39.38-47.21-60.49-7.77-14.01-13.79-35.48-11.85-42.57,1.36-4.97,1.75-4.79,13.02,11.53,16.32,23.06,48.18,53.93,81.21,78.23,36.92,27.14,92.68,58.89,169.03,96.32,48.96,23.95,61.98,33.88,74.41,56.76Z" style="fill: #8b5cf6"/>
      <path class="cls-3" d="m798.47,585.64c17.99,4.51,37.95,8.53,59.69,11.42-3.42.71-6.43,3.8-15.52,13.18-13.6,14.19-50.32,45.41-71.5,61.2-26.23,19.51-68.97,42.75-75.97,41.33-2.14-.35-.39-2.48,6.02-7.27,13.99-10.29,43.72-35.3,42.74-36.01-.39-.35-13.02,6.56-27.78,15.61-33.42,20.22-51.88,29.98-74.61,38.85-43.13,17.03-84.32,18.98-51.1,2.31,52.65-26.08,116.38-65.28,77.13-47.18-17.29,7.98-63.73,24.48-83.35,29.62-9.52,2.66-23.51,5.14-31.09,5.68-13.99.89-25.26-1.42-23.9-4.97.39-1.06,10.69-5.32,22.93-9.58,30.5-10.29,54.4-20.04,85.49-34.95,33.81-16.14,75.77-37.25,75.77-37.96,0-.12-.02-.23-.23-.23,9.54-4.26,19.08-8.64,28.72-13.07,24.15-11.1,43.58-21.09,56.56-27.97Z" style="fill: #8b5cf6"/>
    </g>
  </g>
</svg>
