<svg>
  <svg id="algorithm" xmlns="http://www.w3.org/2000/svg" viewBox="0 0 64 64" stroke-width="3" stroke="currentColor" fill="none"><circle cx="34.52" cy="11.43" r="5.82"/><circle cx="53.63" cy="31.6" r="5.82"/><circle cx="34.52" cy="50.57" r="5.82"/><circle cx="15.16" cy="42.03" r="5.82"/><circle cx="15.16" cy="19.27" r="5.82"/><circle cx="34.51" cy="29.27" r="4.7"/><line x1="20.17" y1="16.3" x2="28.9" y2="12.93"/><line x1="38.6" y1="15.59" x2="49.48" y2="27.52"/><line x1="50.07" y1="36.2" x2="38.67" y2="46.49"/><line x1="18.36" y1="24.13" x2="30.91" y2="46.01"/><line x1="20.31" y1="44.74" x2="28.7" y2="48.63"/><line x1="17.34" y1="36.63" x2="31.37" y2="16.32"/><line x1="20.52" y1="21.55" x2="30.34" y2="27.1"/><line x1="39.22" y1="29.8" x2="47.81" y2="30.45"/><line x1="34.51" y1="33.98" x2="34.52" y2="44.74"/></svg>
  <svg id="filter" xmlns="http://www.w3.org/2000/svg" viewBox="0 0 64 64" stroke-width="3" stroke="currentColor" fill="none"><polygon points="8.5 8.46 55.5 8.46 55.38 15 36 34 36 55.54 26 50 26 34 8.5 15 8.5 8.46"/><line x1="8.5" y1="14.47" x2="55.5" y2="14.47"/></svg>
  <svg id="fire" xmlns="http://www.w3.org/2000/svg" viewBox="0 0 64 64" stroke-width="3" stroke="currentColor" fill="none"><path d="M37.34,7.36a.12.12,0,0,1,.18.13c-.47,1.86-2.78,12.63,5.57,19.62,8.16,6.84,8.41,17.13,2.33,24-7.27,8.23-19.84,6.78-25.25,1.37C16.36,48.69,9.44,36.33,21.29,26a.1.1,0,0,1,.16,0c.29,1.23,2.3,9,7.66,10,.25,0,.37-.11.25-.34C27.78,32.6,20.66,17,37.34,7.36Z" stroke-linecap="round"/></svg>
  <svg id="graph" xmlns="http://www.w3.org/2000/svg" viewBox="0 0 64 64" stroke-width="3" stroke="currentColor" fill="none"><rect x="11.83" y="38.02" width="7" height="11.45"/><rect x="24.83" y="23.12" width="7" height="26.35"/><rect x="37.83" y="28.2" width="7" height="21.27"/><rect x="50.83" y="13.08" width="7" height="36.4"/><polyline points="5.76 6.78 5.76 55.64 61.7 55.64"/></svg>
  <svg id="home" xmlns="http://www.w3.org/2000/svg" width="36" height="36" viewBox="0 0 24 24" fill="none" stroke="currentColor" stroke-width="2" stroke-linecap="round" stroke-linejoin="round" class="ai ai-Home"><path d="M21 19v-6.733a4 4 0 0 0-1.245-2.9L13.378 3.31a2 2 0 0 0-2.755 0L4.245 9.367A4 4 0 0 0 3 12.267V19a2 2 0 0 0 2 2h14a2 2 0 0 0 2-2z"/></svg>
  <svg id="statistics-down" xmlns="http://www.w3.org/2000/svg" width="36" height="36" viewBox="0 0 24 24" fill="none" stroke="currentColor" stroke-width="2" stroke-linecap="round" stroke-linejoin="round" class="ai ai-StatisticDown"><path d="M3 3v16a2 2 0 0 0 2 2h16"/><path d="M7 9l4 4 4-4 6 6"/><path d="M18 15h3v-3"/></svg>
  <svg id="statistics-up" xmlns="http://www.w3.org/2000/svg" width="36" height="36" viewBox="0 0 24 24" fill="none" stroke="currentColor" stroke-width="2" stroke-linecap="round" stroke-linejoin="round" class="ai ai-StatisticUp"><path d="M3 3v16a2 2 0 0 0 2 2h16"/><path d="M7 14l4-4 4 4 6-6"/><path d="M18 8h3v3"/></svg>
  <svg id="person" xmlns="http://www.w3.org/2000/svg" width="36" height="36" viewBox="0 0 24 24" fill="none" stroke="currentColor" stroke-width="2" stroke-linecap="round" stroke-linejoin="round" class="ai ai-Person"><circle cx="12" cy="7" r="5"/><path d="M17 14h.352a3 3 0 0 1 2.976 2.628l.391 3.124A2 2 0 0 1 18.734 22H5.266a2 2 0 0 1-1.985-2.248l.39-3.124A3 3 0 0 1 6.649 14H7"/></svg>
</svg>
