<svg>
  <svg id="algorithm" xmlns="http://www.w3.org/2000/svg" viewBox="0 0 64 64" stroke-width="3" stroke="currentColor" fill="none"><circle cx="34.52" cy="11.43" r="5.82"/><circle cx="53.63" cy="31.6" r="5.82"/><circle cx="34.52" cy="50.57" r="5.82"/><circle cx="15.16" cy="42.03" r="5.82"/><circle cx="15.16" cy="19.27" r="5.82"/><circle cx="34.51" cy="29.27" r="4.7"/><line x1="20.17" y1="16.3" x2="28.9" y2="12.93"/><line x1="38.6" y1="15.59" x2="49.48" y2="27.52"/><line x1="50.07" y1="36.2" x2="38.67" y2="46.49"/><line x1="18.36" y1="24.13" x2="30.91" y2="46.01"/><line x1="20.31" y1="44.74" x2="28.7" y2="48.63"/><line x1="17.34" y1="36.63" x2="31.37" y2="16.32"/><line x1="20.52" y1="21.55" x2="30.34" y2="27.1"/><line x1="39.22" y1="29.8" x2="47.81" y2="30.45"/><line x1="34.51" y1="33.98" x2="34.52" y2="44.74"/></svg>
  <svg id="filter" xmlns="http://www.w3.org/2000/svg" viewBox="0 0 64 64" stroke-width="3" stroke="currentColor" fill="none"><polygon points="8.5 8.46 55.5 8.46 55.38 15 36 34 36 55.54 26 50 26 34 8.5 15 8.5 8.46"/><line x1="8.5" y1="14.47" x2="55.5" y2="14.47"/></svg>
  <svg id="fire" xmlns="http://www.w3.org/2000/svg" viewBox="0 0 64 64" stroke-width="3" stroke="currentColor" fill="none"><path d="M37.34,7.36a.12.12,0,0,1,.18.13c-.47,1.86-2.78,12.63,5.57,19.62,8.16,6.84,8.41,17.13,2.33,24-7.27,8.23-19.84,6.78-25.25,1.37C16.36,48.69,9.44,36.33,21.29,26a.1.1,0,0,1,.16,0c.29,1.23,2.3,9,7.66,10,.25,0,.37-.11.25-.34C27.78,32.6,20.66,17,37.34,7.36Z" stroke-linecap="round"/></svg>
  <svg id="graph" xmlns="http://www.w3.org/2000/svg" viewBox="0 0 64 64" stroke-width="3" stroke="currentColor" fill="none"><rect x="11.83" y="38.02" width="7" height="11.45"/><rect x="24.83" y="23.12" width="7" height="26.35"/><rect x="37.83" y="28.2" width="7" height="21.27"/><rect x="50.83" y="13.08" width="7" height="36.4"/><polyline points="5.76 6.78 5.76 55.64 61.7 55.64"/></svg>
  <svg id="home" xmlns="http://www.w3.org/2000/svg" width="36" height="36" viewBox="0 0 24 24" fill="none" stroke="currentColor" stroke-width="2" stroke-linecap="round" stroke-linejoin="round" class="ai ai-Home"><path d="M21 19v-6.733a4 4 0 0 0-1.245-2.9L13.378 3.31a2 2 0 0 0-2.755 0L4.245 9.367A4 4 0 0 0 3 12.267V19a2 2 0 0 0 2 2h14a2 2 0 0 0 2-2z"/></svg>
  <svg id="statistics-down" xmlns="http://www.w3.org/2000/svg" width="36" height="36" viewBox="0 0 24 24" fill="none" stroke="currentColor" stroke-width="2" stroke-linecap="round" stroke-linejoin="round" class="ai ai-StatisticDown"><path d="M3 3v16a2 2 0 0 0 2 2h16"/><path d="M7 9l4 4 4-4 6 6"/><path d="M18 15h3v-3"/></svg>
  <svg id="statistics-up" xmlns="http://www.w3.org/2000/svg" width="36" height="36" viewBox="0 0 24 24" fill="none" stroke="currentColor" stroke-width="2" stroke-linecap="round" stroke-linejoin="round" class="ai ai-StatisticUp"><path d="M3 3v16a2 2 0 0 0 2 2h16"/><path d="M7 14l4-4 4 4 6-6"/><path d="M18 8h3v3"/></svg>
  <svg id="person" xmlns="http://www.w3.org/2000/svg" width="36" height="36" viewBox="0 0 24 24" fill="none" stroke="currentColor" stroke-width="2" stroke-linecap="round" stroke-linejoin="round" class="ai ai-Person"><circle cx="12" cy="7" r="5"/><path d="M17 14h.352a3 3 0 0 1 2.976 2.628l.391 3.124A2 2 0 0 1 18.734 22H5.266a2 2 0 0 1-1.985-2.248l.39-3.124A3 3 0 0 1 6.649 14H7"/></svg>
  <svg id="ticket" xmlns="http://www.w3.org/2000/svg" width="36" height="36" viewBox="0 0 24 24" fill="none" stroke="currentColor" stroke-width="2" stroke-linecap="round" stroke-linejoin="round" class="ai ai-Ticket"><path d="M8.707 3.293c-.39.39-.369 1.021-.138 1.523a2.83 2.83 0 0 1-3.753 3.753c-.502-.23-1.133-.252-1.523.138l-.586.586a1 1 0 0 0 0 1.414l10.586 10.586a1 1 0 0 0 1.414 0l.586-.586c.39-.39.369-1.021.138-1.523a2.83 2.83 0 0 1 3.753-3.753c.502.23 1.133.252 1.523-.138l.586-.586a1 1 0 0 0 0-1.414L10.707 2.707a1 1 0 0 0-1.414 0l-.586.586z"/></svg>
  <svg id="reality" xmlns="http://www.w3.org/2000/svg" width="36" height="36" viewBox="0 0 24 24" fill="none" stroke="currentColor" stroke-width="2" stroke-linecap="round" stroke-linejoin="round" class="ai ai-AugmentedReality"><path d="M10.971 6.617a2 2 0 0 1 2.058 0l3.486 2.092a1 1 0 0 1 .485.857v4.302a2 2 0 0 1-.971 1.715l-3 1.8a2 2 0 0 1-2.058 0l-3-1.8A2 2 0 0 1 7 13.868V9.566a1 1 0 0 1 .486-.857l3.485-2.092z"/><path d="M7 9l5 2.759m0 0L17 9m-5 2.759V17"/><path d="M6 2H4a2 2 0 0 0-2 2v2"/><path d="M18 22h2a2 2 0 0 0 2-2v-2"/><path d="M22 6V4a2 2 0 0 0-2-2h-2"/><path d="M2 18v2a2 2 0 0 0 2 2h2"/></svg>
  <svg id="computing" xmlns="http://www.w3.org/2000/svg" width="36" height="36" viewBox="0 0 24 24" fill="none" stroke="currentColor" stroke-width="2" stroke-linecap="round" stroke-linejoin="round" class="ai ai-Computing"><rect x="5" y="5" width="14" height="14" rx="2"/><path d="M8 5V2"/><path d="M16 5V3l1-1"/><path d="M16 22v-3"/><path d="M9 22v-3"/><path d="M5 8H2"/><path d="M22 8h-3"/><path d="M22 16h-3"/><path d="M5 16H3l-1 1"/></svg>
  <svg id="discord" xmlns="http://www.w3.org/2000/svg" width="36" height="36" viewBox="0 0 24 24" fill="currentColor" stroke-width="2" class="ai ai-DiscordFill"><path d="M20.317 4.492c-1.53-.69-3.17-1.2-4.885-1.49a.075.075 0 0 0-.079.036c-.21.369-.444.85-.608 1.23a18.566 18.566 0 0 0-5.487 0 12.36 12.36 0 0 0-.617-1.23A.077.077 0 0 0 8.562 3c-1.714.29-3.354.8-4.885 1.491a.07.07 0 0 0-.032.027C.533 9.093-.32 13.555.099 17.961a.08.08 0 0 0 .031.055 20.03 20.03 0 0 0 5.993 2.98.078.078 0 0 0 .084-.026c.462-.62.874-1.275 1.226-1.963.021-.04.001-.088-.041-.104a13.201 13.201 0 0 1-1.872-.878.075.075 0 0 1-.008-.125c.126-.093.252-.19.372-.287a.075.075 0 0 1 .078-.01c3.927 1.764 8.18 1.764 12.061 0a.075.075 0 0 1 .079.009c.12.098.245.195.372.288a.075.075 0 0 1-.006.125c-.598.344-1.22.635-1.873.877a.075.075 0 0 0-.041.105c.36.687.772 1.341 1.225 1.962a.077.077 0 0 0 .084.028 19.963 19.963 0 0 0 6.002-2.981.076.076 0 0 0 .032-.054c.5-5.094-.838-9.52-3.549-13.442a.06.06 0 0 0-.031-.028zM8.02 15.278c-1.182 0-2.157-1.069-2.157-2.38 0-1.312.956-2.38 2.157-2.38 1.21 0 2.176 1.077 2.157 2.38 0 1.312-.956 2.38-2.157 2.38zm7.975 0c-1.183 0-2.157-1.069-2.157-2.38 0-1.312.955-2.38 2.157-2.38 1.21 0 2.176 1.077 2.157 2.38 0 1.312-.946 2.38-2.157 2.38z"/></svg>
</svg>
